# Blender v2.90.1 OBJ File: ''
# www.blender.org
mtllib T.mtl
o Cube
v 20.000000 19.000000 -20.000000
v 20.000000 -1.000000 -20.000000
v 20.000000 19.000000 20.000000
v 20.000000 -1.000000 20.000000
v -20.000000 -1.000000 -20.000000
v -20.000000 19.000000 20.000000
v -20.000000 -1.000000 20.000000
vt 0.625000 0.750000
vt 0.375000 1.000000
vt 0.375000 0.750000
vt 0.375000 0.500000
vt 0.125000 0.750000
vt 0.125000 0.500000
vt 0.625000 0.500000
vt 0.625000 1.000000
vn 0.0000 0.0000 1.0000
vn 0.0000 -1.0000 0.0000
vn 1.0000 0.0000 0.0000
usemtl Material
s off
f 3/1/1 7/2/1 4/3/1
f 2/4/2 7/5/2 5/6/2
f 1/7/3 4/3/3 2/4/3
f 3/1/1 6/8/1 7/2/1
f 2/4/2 4/3/2 7/5/2
f 1/7/3 3/1/3 4/3/3
