# Blender v2.91.0 OBJ File: 'room stuff.blend'
# www.blender.org
o staright_Cube.005
v 20.499996 9.999996 20.500002
v -20.000000 -10.000004 20.499998
v 20.499996 -10.000004 20.499998
v -20.000000 9.999996 20.500002
v -20.000000 10.000003 -19.499998
v 20.499996 10.000003 -19.499998
v 20.499996 10.000004 -20.499998
v 20.499996 9.999997 19.500002
v -20.000000 9.999997 19.500002
v 20.499996 -9.000003 19.499998
v -20.000000 10.000004 -20.499998
v -20.000000 -9.000003 19.499998
v 20.499996 -8.999997 -19.500000
v -20.000000 -8.999997 -19.500000
v 20.499996 -9.999996 -20.500002
v -20.000000 -9.999996 -20.500002
v -20.499998 9.999996 20.500002
v -20.499998 9.999997 19.500002
v -20.499998 -10.000004 20.499998
v -20.499998 -9.000003 19.499998
v -20.499998 -8.999997 -19.500000
v -20.499998 10.000003 -19.499998
v -20.499998 -9.999996 -20.500002
v -20.499998 10.000004 -20.499998
vt 0.000000 0.000000
vt 0.000000 0.000000
vt 0.000000 0.000000
vt 0.000000 0.000000
vt 0.000000 0.000000
vt 0.000000 0.000000
vt 0.000000 0.000000
vt 0.000000 0.000000
vt 0.000000 0.000000
vt 0.000000 0.000000
vt 0.000000 0.000000
vt 0.000000 0.000000
vt 0.000000 0.000000
vt 0.000000 0.000000
vt 0.000000 0.000000
vt 0.000000 0.000000
vt 0.000000 0.000000
vt 0.000000 0.000000
vt 0.000000 0.000000
vt 0.000000 0.000000
vt 0.000000 0.000000
vt 0.000000 0.000000
vt 0.000000 0.000000
vt 0.000000 0.000000
vn 0.0000 0.0000 -1.0000
vn -1.0000 0.0000 0.0000
vn 0.0000 -0.0000 1.0000
vn 0.0000 -1.0000 -0.0000
vn 0.0000 1.0000 0.0000
vn 1.0000 0.0000 0.0000
s off
f 3/1/1 4/2/1 1/3/1
f 3/1/2 13/4/2 15/5/2
f 13/4/1 5/6/1 6/7/1
f 12/8/3 8/9/3 9/10/3
f 12/8/4 13/4/4 10/11/4
f 5/6/4 7/12/4 6/7/4
f 14/13/1 22/14/1 5/6/1
f 11/15/3 15/5/3 7/12/3
f 9/10/4 1/3/4 4/2/4
f 2/16/5 15/5/5 16/17/5
f 19/18/6 23/19/6 20/20/6
f 12/8/4 21/21/4 14/13/4
f 2/16/1 17/22/1 4/2/1
f 11/15/3 23/19/3 16/17/3
f 9/10/3 20/20/3 12/8/3
f 5/6/4 24/23/4 11/15/4
f 16/17/5 19/18/5 2/16/5
f 4/2/4 18/24/4 9/10/4
f 3/1/1 2/16/1 4/2/1
f 3/1/2 1/3/2 10/11/2
f 1/3/2 8/9/2 10/11/2
f 6/7/2 7/12/2 13/4/2
f 7/12/2 15/5/2 13/4/2
f 3/1/2 10/11/2 13/4/2
f 13/4/1 14/13/1 5/6/1
f 12/8/3 10/11/3 8/9/3
f 12/8/4 14/13/4 13/4/4
f 5/6/4 11/15/4 7/12/4
f 14/13/1 21/21/1 22/14/1
f 11/15/3 16/17/3 15/5/3
f 9/10/4 8/9/4 1/3/4
f 2/16/5 3/1/5 15/5/5
f 20/20/6 18/24/6 17/22/6
f 23/19/6 24/23/6 21/21/6
f 24/23/6 22/14/6 21/21/6
f 20/20/6 17/22/6 19/18/6
f 23/19/6 21/21/6 20/20/6
f 12/8/4 20/20/4 21/21/4
f 2/16/1 19/18/1 17/22/1
f 11/15/3 24/23/3 23/19/3
f 9/10/3 18/24/3 20/20/3
f 5/6/4 22/14/4 24/23/4
f 16/17/5 23/19/5 19/18/5
f 4/2/4 17/22/4 18/24/4
